# xmcd CD database file
#
# Track frame offsets:
#	150
#	23842
#	43022
#	57872
#	87474
#	103507
#	133841
#	152567
#	168743
#	181746
#	200008
#	217821
#	242961
#
# Disc length: 3426 seconds
#
# Revision: 0
# Processed by: cddbd v1.4PL0 Copyright (c) Steve Scherf et al.
# Submitted via: CDex 1.40Release
#
DISCID=b20d600d
DTITLE=BubbaDoVoodoo - Who Do Voodoo?
DYEAR=2003
DGENRE=Blues
TTITLE0=Maybelline - Johnny B. Goode
TTITLE1=1040 Blues
TTITLE2=Born Under a Bad Sign
TTITLE3=Red House
TTITLE4=Smoking Gun
TTITLE5=Ain't That Lovin' You
TTITLE6=Steamroller Blues
TTITLE7=Cherry Red Wine
TTITLE8=Get Out My Life Woman
TTITLE9=Mary Had a Little Lamb
TTITLE10=Still Raining
TTITLE11=Stormy Monday
TTITLE12=Pride and Joy
EXTD=YEAR: 2003 ID3G: 0
EXTT0=
EXTT1=
EXTT2=
EXTT3=
EXTT4=
EXTT5=
EXTT6=
EXTT7=
EXTT8=
EXTT9=
EXTT10=
EXTT11=
EXTT12=
PLAYORDER=
